HIERARCHY
ROOT Hips
{
	OFFSET 0.00000 0.00000 0.00000
	CHANNELS 6 Xposition Yposition Zposition Zrotation Yrotation Xrotation 
	JOINT LHipJoint
	{
		OFFSET 0 0 0
		CHANNELS 3 Zrotation Yrotation Xrotation
		JOINT LeftUpLeg
		{
			OFFSET 1.42489 -1.84941 0.69647
			CHANNELS 3 Zrotation Yrotation Xrotation
			JOINT LeftLeg
			{
				OFFSET 2.44443 -6.71602 0.00000
				CHANNELS 3 Zrotation Yrotation Xrotation
				JOINT LeftFoot
				{
					OFFSET 2.62838 -7.22137 0.00000
					CHANNELS 3 Zrotation Yrotation Xrotation
					JOINT LeftToeBase
					{
						OFFSET 0.24036 -0.66037 2.29953
						CHANNELS 3 Zrotation Yrotation Xrotation
						End Site
						{
							OFFSET 0.00000 -0.00000 1.19837
						}
					}
				}
			}
		}
	}
	JOINT RHipJoint
	{
		OFFSET 0 0 0
		CHANNELS 3 Zrotation Yrotation Xrotation
		JOINT RightUpLeg
		{
			OFFSET -1.37055 -1.84941 0.69647
			CHANNELS 3 Zrotation Yrotation Xrotation
			JOINT RightLeg
			{
				OFFSET -2.54834 -7.00152 0.00000
				CHANNELS 3 Zrotation Yrotation Xrotation
				JOINT RightFoot
				{
					OFFSET -2.65692 -7.29983 0.00000
					CHANNELS 3 Zrotation Yrotation Xrotation
					JOINT RightToeBase
					{
						OFFSET -0.18839 -0.51760 2.29390
						CHANNELS 3 Zrotation Yrotation Xrotation
						End Site
						{
							OFFSET -0.00000 -0.00000 1.18261
						}
					}
				}
			}
		}
	}
	JOINT LowerBack
	{
		OFFSET 0 0 0
		CHANNELS 3 Zrotation Yrotation Xrotation
		JOINT Spine
		{
			OFFSET 0.05220 2.15489 0.05011
			CHANNELS 3 Zrotation Yrotation Xrotation
			JOINT Spine1
			{
				OFFSET -0.07653 2.14219 -0.05668
				CHANNELS 3 Zrotation Yrotation Xrotation
				JOINT Neck
				{
					OFFSET 0 0 0
					CHANNELS 3 Zrotation Yrotation Xrotation
					JOINT Neck1
					{
						OFFSET 0.01370 1.58638 0.01447
						CHANNELS 3 Zrotation Yrotation Xrotation
						JOINT Head
						{
							OFFSET 0.23548 1.54190 -0.21747
							CHANNELS 3 Zrotation Yrotation Xrotation
							End Site
							{
								OFFSET 0.07132 1.59823 -0.08163
							}
						}
					}
				}
				JOINT LeftShoulder
				{
					OFFSET 0 0 0
					CHANNELS 3 Zrotation Yrotation Xrotation
					JOINT LeftArm
					{
						OFFSET 3.47056 1.45357 -0.58896
						CHANNELS 3 Zrotation Yrotation Xrotation
						JOINT LeftForeArm
						{
							OFFSET 5.19069 -0.00000 0.00000
							CHANNELS 3 Zrotation Yrotation Xrotation
							JOINT LeftHand
							{
								OFFSET 3.30016 -0.00000 0.00000
								CHANNELS 3 Zrotation Yrotation Xrotation
								JOINT LeftFingerBase
								{
									OFFSET 0 0 0
									CHANNELS 3 Zrotation Yrotation Xrotation
									JOINT LeftHandIndex1
									{
										OFFSET 0.70770 -0.00000 0.00000
										CHANNELS 3 Zrotation Yrotation Xrotation
										End Site
										{
											OFFSET 0.57056 -0.00000 0.00000
										}
									}
								}
								JOINT LThumb
								{
									OFFSET 0 0 0
									CHANNELS 3 Zrotation Yrotation Xrotation
									End Site
									{
										OFFSET 0.57928 -0.00000 0.57928
									}
								}
							}
						}
					}
				}
				JOINT RightShoulder
				{
					OFFSET 0 0 0
					CHANNELS 3 Zrotation Yrotation Xrotation
					JOINT RightArm
					{
						OFFSET -2.89018 2.03305 -0.26731
						CHANNELS 3 Zrotation Yrotation Xrotation
						JOINT RightForeArm
						{
							OFFSET -5.23924 -0.00000 0.00000
							CHANNELS 3 Zrotation Yrotation Xrotation
							JOINT RightHand
							{
								OFFSET -3.32953 -0.00000 0.00000
								CHANNELS 3 Zrotation Yrotation Xrotation
								JOINT RightFingerBase
								{
									OFFSET 0 0 0
									CHANNELS 3 Zrotation Yrotation Xrotation
									JOINT RightHandIndex1
									{
										OFFSET -0.60741 -0.00000 0.00000
										CHANNELS 3 Zrotation Yrotation Xrotation
										End Site
										{
											OFFSET -0.48971 -0.00000 0.00000
										}
									}
								}
								JOINT RThumb
								{
									OFFSET 0 0 0
									CHANNELS 3 Zrotation Yrotation Xrotation
									End Site
									{
										OFFSET -0.49719 -0.00000 0.49719
									}
								}
							}
						}
					}
				}
			}
		}
	}
}
MOTION
Frames: 14
Frame Time: 0.0294118
0.00 0.00 0.00 -7.9588 -44.8468 24.3587 0.0000 0.0000 0.0000 -15.7890 -8.4521 -52.8740 5.3739 13.7929 42.4141 0.0316 6.0936 -9.5035 0.0348 -1.2038 -3.3098 0.0000 0.0000 0.0000 15.4159 20.3475 -38.0936 -19.7707 -19.9987 89.3296 -0.1622 -3.4373 -9.6719 -1.9929 8.8513 -25.3313 5.4479 -1.6622 22.3172 -0.7070 -1.8912 14.7789 -3.5034 -0.7875 3.6759 5.1859 3.3563 3.2158 -3.7432 4.3364 -21.1980 -2.3552 1.9233 -6.7712 -0.0000 0.0000 0.0000 -72.1295 -49.7486 66.2585 82.9974 -59.8139 -53.9394 -0.0000 0.0000 -35.5367 34.1579 2.3045 1.5628 -7.1250 0.0000 -0.0000 6.1321 32.7218 -1.8533 -0.0000 0.0000 0.0000 72.1876 -4.7570 48.4898 -56.7286 55.3732 -31.6337 0.0000 0.0000 4.6740 -49.2471 3.7928 -4.3895 7.1250 -0.0000 -0.0000 -16.6741 -24.1784 -8.7425
0.00 0.00 0.00 -6.9145 -46.4810 20.3614 0.0000 0.0000 0.0000 -18.2975 -7.8416 -53.0445 7.9050 16.0489 52.2197 0.6377 7.0720 -19.2878 0.0005 0.1490 0.4093 0.0000 0.0000 0.0000 11.2312 23.8825 -55.3647 -25.2933 -19.3145 105.6484 -0.9647 -2.5925 -19.6600 -2.5085 9.8533 -28.5031 4.4104 -1.4014 26.8745 -0.8558 -1.7359 16.1324 -3.0527 -0.8391 3.1177 5.8395 3.6151 2.4509 -5.0325 4.4379 -22.2379 -2.8925 1.9964 -6.9110 -0.0000 -0.0000 0.0000 -57.1192 -59.9049 49.5915 81.5933 -59.7313 -52.7261 -0.0000 0.0000 -40.9892 32.8838 5.0757 3.2738 -7.1250 0.0000 -0.0000 5.2072 35.9764 -1.1589 -0.0000 -0.0000 0.0000 70.9407 2.7880 49.5251 -70.7424 58.5513 -43.4035 0.0000 0.0000 4.1207 -47.7325 0.4573 -0.5032 7.1250 -0.0000 -0.0000 -16.3924 -29.1022 -6.5982
0.00 0.00 0.00 -5.7401 -48.0390 16.2025 0.0000 0.0000 0.0000 -19.6074 -7.9339 -53.5329 10.9457 17.9084 62.6052 1.4505 6.7679 -26.0882 0.0019 0.2778 0.7634 0.0000 0.0000 0.0000 5.9816 27.1829 -70.3060 -26.2412 -19.0392 108.5336 -1.4470 -1.1621 -23.1835 -2.7371 10.2568 -29.8124 3.5351 -1.2726 32.0641 -1.2094 -1.7647 17.0509 -2.6772 -0.9852 1.9720 6.2254 3.9413 1.8606 -5.7731 4.7113 -23.2860 -3.2262 2.1264 -7.0965 -0.0000 0.0000 0.0000 -34.5911 -66.0265 24.8074 76.8828 -59.3398 -48.6653 -0.0000 0.0000 -44.9125 31.9400 7.2811 4.5175 -7.1250 0.0000 -0.0000 4.4385 38.5069 -0.7115 -0.0000 0.0000 0.0000 69.6225 10.8875 50.5525 -85.7897 59.9329 -56.3546 0.0000 0.0000 2.8552 -44.2810 -3.2742 3.1880 7.1250 -0.0000 -0.0000 -14.4888 -34.2580 -3.9253
0.00 0.00 0.00 -5.5130 -49.2821 12.4100 0.0000 0.0000 0.0000 -20.2712 -7.8140 -53.5074 14.4191 19.2363 73.4805 2.4466 5.2272 -31.7542 0.0071 -0.5432 -1.4925 0.0000 0.0000 0.0000 1.9845 29.3550 -81.9911 -22.5812 -19.8395 97.5665 -1.6609 -1.2370 -24.8372 -2.9575 10.6259 -31.0284 3.6042 -1.4016 37.3724 -1.5667 -1.9774 17.9941 -2.9191 -1.1499 1.1776 6.4513 4.0949 1.6786 -6.2963 4.7749 -24.7493 -3.4800 2.1416 -7.5176 0.0000 -0.0000 0.0000 -2.9536 -67.3083 -9.7732 67.9440 -58.0796 -41.0221 -0.0000 0.0000 -49.1233 30.9967 8.6948 5.1894 -7.1250 0.0000 -0.0000 3.6021 40.0702 -0.4384 0.0000 -0.0000 0.0000 68.4428 21.5453 50.9901 -101.4002 59.5032 -69.8564 0.0000 0.0000 0.7937 -40.5026 -7.6758 6.5086 7.1250 -0.0000 -0.0000 -11.9686 -39.7512 -1.5745
0.00 0.00 0.00 -4.8741 -50.4751 10.1622 0.0000 0.0000 0.0000 -20.6626 -8.1043 -55.8449 18.8047 19.9657 86.5032 3.2076 2.4704 -34.8233 0.2648 -3.3106 -9.1446 0.0000 0.0000 0.0000 2.5770 29.5051 -84.5849 -11.9183 -18.3559 65.7296 -1.7815 -1.6190 -25.8562 -3.0801 10.8236 -31.6871 2.7376 -1.0066 40.9156 -1.6870 -1.8616 18.3818 -2.5741 -1.2039 0.7304 5.8514 4.0272 1.6311 -6.1906 4.5890 -26.0084 -3.3731 2.0609 -7.9642 -0.0000 0.0000 0.0000 24.9289 -63.2525 -40.8601 57.3124 -55.5502 -32.1146 -0.0000 0.0000 -51.7072 30.4431 9.1495 5.3389 -7.1250 0.0000 -0.0000 3.1007 40.5425 -0.3412 -0.0000 0.0000 0.0000 67.1874 33.6195 49.7034 -113.2873 57.8483 -80.0217 0.0000 -0.0000 -2.0848 -36.4297 -13.6998 9.9151 7.1250 -0.0000 -0.0000 -8.6263 -46.6513 0.3541
0.00 0.00 0.00 -4.0690 -50.8466 9.3475 0.0000 0.0000 0.0000 -21.7916 -7.8796 -57.1712 20.5931 19.9916 91.7344 3.3743 2.4160 -35.6756 0.4333 -4.2242 -11.7084 0.0000 0.0000 0.0000 5.4755 28.6806 -80.7364 -6.9243 -15.2678 48.5875 -1.9110 -0.1062 -26.2129 -3.2109 11.0288 -32.3772 2.1734 -0.6753 41.3665 -1.8070 -1.7061 18.6505 -2.4638 -1.1672 0.9143 5.5797 3.8578 1.5507 -6.1156 4.3143 -26.3600 -3.2945 1.9361 -8.0967 0.0000 -0.0000 0.0000 32.5357 -61.2803 -49.1062 54.0235 -54.4947 -29.4194 -0.0000 0.0000 -52.3310 29.9965 9.1298 5.2335 -7.1250 0.0000 -0.0000 2.7053 40.4777 -0.3019 0.0000 -0.0000 0.0000 66.5821 37.4930 49.0287 -115.6346 57.3652 -82.0038 0.0000 -0.0000 -3.3548 -35.5607 -15.8423 11.0429 7.1250 -0.0000 -0.0000 -7.7701 -49.0528 0.7809
0.00 0.00 0.00 -3.6427 -51.0628 8.7915 0.0000 0.0000 0.0000 -22.8007 -6.7543 -57.5954 22.9421 19.7912 98.6311 3.6060 0.4403 -36.2005 0.8711 -5.9508 -16.6418 0.0000 0.0000 0.0000 9.9684 27.7985 -73.7841 -2.9430 -10.6022 30.9496 -1.9373 2.0327 -25.7762 -3.2231 11.0477 -32.4408 1.9288 -0.4842 41.1760 -2.2169 -1.6260 19.0561 -2.8144 -1.1191 1.4134 5.6496 3.6393 1.4624 -5.7647 4.0703 -26.6111 -3.1787 1.7680 -8.1934 0.0000 -0.0000 0.0000 40.0777 -57.9109 -55.2730 49.0916 -52.6225 -25.4505 -0.0000 0.0000 -53.9342 28.4823 9.4816 5.1073 -7.1250 0.0000 -0.0000 1.3460 40.7348 -0.1416 0.0000 -0.0000 0.0000 66.3604 41.2946 49.2236 -117.1575 57.0210 -83.2838 0.0000 -0.0000 -4.7241 -35.4818 -17.5048 12.1012 7.1250 -0.0000 -0.0000 -7.6500 -50.9950 1.1356
0.00 0.00 0.00 -2.3232 -46.4521 14.7765 0.0000 0.0000 0.0000 -23.3217 -0.5535 -48.5528 20.9271 19.9794 92.7115 2.1018 -17.0906 -26.9769 1.6801 -8.1653 -23.2172 0.0000 0.0000 0.0000 10.1172 27.9560 -66.4761 -2.0577 -8.9852 25.7490 -0.8241 3.7671 -16.2964 -1.8740 8.5986 -24.5476 2.4438 -1.9935 31.7129 -2.4800 -2.9964 18.0964 -3.1435 -1.5713 3.1232 5.3377 3.2722 1.8059 -3.1412 4.1721 -25.6360 -2.2368 1.6257 -8.0144 0.0000 0.0000 0.0000 22.6234 -66.9336 -32.0099 63.5677 -57.1880 -37.3251 -0.0000 0.0000 -51.7086 28.2443 8.0008 4.2760 -7.1250 0.0000 -0.0000 1.2134 39.0423 -0.1781 0.0000 0.0000 0.0000 70.8453 24.2397 51.7983 -110.5621 58.3406 -77.7081 0.0000 -0.0000 -1.7913 -40.6703 -11.3625 9.6081 7.1250 -0.0000 -0.0000 -12.5677 -44.4474 -0.1743
0.00 0.00 0.00 -2.7800 -44.5400 17.2181 0.0000 0.0000 0.0000 -22.4084 1.3855 -41.7879 18.0683 19.9103 84.3440 1.1074 -22.6539 -23.1416 1.8064 -8.4505 -24.0910 0.0000 0.0000 0.0000 7.7405 28.8108 -66.3277 -2.5378 -9.9064 28.6740 -0.2914 0.2563 -10.1093 -1.0573 6.5381 -18.3538 4.0341 -2.6341 28.3194 -1.9204 -3.3463 16.9443 -3.5989 -1.5943 3.2463 5.2442 2.9613 1.1711 -2.9907 3.7342 -23.4885 -2.0863 1.4688 -7.2083 0.0000 -0.0000 0.0000 -12.0598 -70.8874 4.0300 75.7576 -59.2195 -47.6981 -0.0000 0.0000 -47.2292 29.3995 5.6714 3.1871 -7.1250 0.0000 -0.0000 2.2730 36.4747 -0.4768 0.0000 -0.0000 0.0000 72.4448 13.9388 51.4437 -96.0642 59.8606 -65.2493 0.0000 0.0000 0.5843 -44.2671 -5.3764 5.2184 7.1250 -0.0000 -0.0000 -14.8820 -37.0878 -2.9779
0.00 0.00 0.00 -2.9586 -44.3467 18.4638 0.0000 0.0000 0.0000 -22.6401 2.9534 -35.5428 15.2613 19.4529 76.0226 0.5237 -24.4680 -20.6155 1.7712 -8.3722 -23.8504 0.0000 0.0000 0.0000 8.2018 28.3929 -65.6620 -3.0725 -10.8114 31.6465 -0.0933 -2.4261 -7.1955 -0.6623 5.2047 -14.4933 4.6128 -2.9996 26.4744 -1.8200 -3.6669 16.1790 -3.7730 -1.7026 3.1309 4.8052 3.0522 1.4850 -3.2700 3.8010 -22.7790 -2.1003 1.5873 -7.0268 -0.0000 -0.0000 0.0000 -39.2458 -67.4276 32.0319 82.5652 -59.7901 -53.5658 -0.0000 0.0000 -43.5099 29.0385 3.9370 2.1830 -7.1250 0.0000 -0.0000 1.9868 34.4754 -0.5135 -0.0000 -0.0000 0.0000 73.6142 7.9947 50.9756 -81.6571 59.7353 -52.7812 0.0000 0.0000 2.4014 -46.9904 -2.0617 2.2086 7.1250 -0.0000 -0.0000 -16.4165 -32.6736 -5.1400
0.00 0.00 0.00 -3.6309 -43.7450 20.6696 0.0000 0.0000 0.0000 -22.9607 4.0731 -28.5951 11.7904 18.3007 65.3230 0.1755 -23.0421 -17.4776 1.6602 -8.1192 -23.0767 0.0000 0.0000 0.0000 9.4463 27.6432 -63.9376 -3.3936 -11.3065 33.3208 0.0486 -4.3168 -3.5315 -0.3421 3.7583 -10.3977 5.8455 -3.6735 23.6858 -1.6682 -4.3249 15.3601 -4.2402 -1.9241 3.3718 4.3516 3.3740 1.6738 -3.2082 4.2579 -21.8422 -2.0163 1.8690 -6.7470 -0.0000 0.0000 0.0000 -59.6756 -59.2476 53.4597 85.2010 -59.9128 -55.8452 -0.0000 0.0000 -40.0769 29.9157 1.9121 1.0999 -7.1250 0.0000 -0.0000 2.6882 32.1780 -0.8445 -0.0000 0.0000 0.0000 75.1678 2.0158 49.5951 -66.4417 57.7954 -39.7489 0.0000 0.0000 3.7751 -49.0489 1.2949 -1.4917 7.1250 -0.0000 -0.0000 -17.1662 -27.8372 -7.4776
0.00 0.00 0.00 -5.2114 -44.9162 25.2832 0.0000 0.0000 0.0000 -22.7952 -0.3821 -10.5959 5.4264 13.8485 42.6338 -0.2752 -11.1748 10.7874 0.5869 -4.9050 -13.6377 0.0000 0.0000 0.0000 13.2000 28.3502 -58.3966 -5.1955 -13.6007 41.6607 0.1555 -6.9740 -2.7031 -0.0009 -0.1895 0.5206 7.1617 -4.2337 17.6864 -1.5659 -5.0426 13.1869 -4.9627 -2.1708 3.7028 3.6281 4.2947 1.1363 -3.2787 5.4878 -19.0942 -1.9105 2.5866 -5.7481 -0.0000 0.0000 0.0000 -79.6039 -37.6527 73.1162 74.9499 -59.1266 -47.0045 -0.0000 0.0000 -33.5462 30.1913 -1.8970 -1.1033 -7.1250 0.0000 -0.0000 2.7844 27.7819 -1.1669 -0.0000 0.0000 0.0000 75.0855 -13.6522 48.1326 -49.0016 52.5848 -25.3790 0.0000 0.0000 4.5038 -50.7241 6.7689 -8.2014 7.1250 -0.0000 -0.0000 -16.9195 -19.5692 -10.7500
0.00 0.00 0.00 -5.6219 -47.3907 25.9459 0.0000 0.0000 0.0000 -21.9490 0.1191 -18.3329 9.0931 16.8673 56.4116 0.4830 -7.8910 18.3162 0.5223 -4.6317 -12.8611 0.0000 0.0000 0.0000 21.0516 23.0659 -56.3402 -5.8431 -14.2746 44.3489 0.1680 -9.1936 -9.3930 -0.2084 -2.9392 8.1094 6.2160 -3.7946 17.8165 -2.1196 -4.5959 13.0241 -5.0843 -2.0031 3.5142 3.5246 4.7405 0.6906 -3.0745 6.1218 -18.5500 -1.8330 2.8992 -5.4913 0.0000 0.0000 0.0000 -78.7110 -36.8307 72.5085 72.7619 -58.8469 -45.1291 -0.0000 0.0000 -34.2113 30.4484 -1.8214 -1.0704 -7.1250 0.0000 -0.0000 2.9859 27.8632 -1.2458 0.0000 0.0000 0.0000 74.0896 -14.2685 50.1770 -50.8286 53.3243 -26.8373 0.0000 0.0000 4.6528 -50.7110 6.7815 -8.2125 7.1250 -0.0000 -0.0000 -16.9076 -19.5532 -10.7481
0.00 0.00 0.00 -6.1484 -47.0723 26.3220 0.0000 0.0000 0.0000 -19.8811 -0.2597 -26.5036 13.9092 19.0863 71.9271 -0.0789 -9.4693 12.0186 1.0909 -6.6378 -18.6465 0.0000 0.0000 0.0000 22.0548 22.8662 -54.5254 -5.8392 -14.2707 44.3330 -0.0196 -9.8277 -14.3207 -0.3367 -3.7288 10.3149 6.5144 -3.9168 18.2647 -2.1543 -4.7002 13.2011 -5.2548 -2.0370 3.4557 3.5921 4.7172 0.5934 -2.6949 6.1498 -18.5800 -1.7251 2.8802 -5.4960 0.0000 -0.0000 0.0000 -76.7517 -38.7609 71.5263 72.7871 -58.8503 -45.1507 -0.0000 0.0000 -35.4223 30.3686 -1.1593 -0.6792 -7.1250 0.0000 -0.0000 2.9533 28.6313 -1.1784 0.0000 -0.0000 0.0000 73.8237 -13.3753 50.9786 -53.6015 54.3486 -29.0762 0.0000 0.0000 4.6750 -50.3164 6.1682 -7.3785 7.1250 -0.0000 -0.0000 -16.8034 -20.5349 -10.2864
